# xmcd
#
# Track frame offsets: 
#        150
#        24150
#        43100
#        61775
#        81475
#        98400
#        115750
#        134475
#        154437
#        175325
#        194925
#        219175
#        234125
#        251725
#
# Disc length: 3578 seconds
#
# Revision: 0
# Processed by: cddbd v1.5.2PL0 Copyright (c) Steve Scherf et al.
# Submitted via: ExactAudioCopy v0.95b4
#
DISCID=bc0df80e
DTITLE=Various Artist - 台語龍鳳榜CD1
DYEAR=1996
DGENRE=A Cappella
TTITLE0=媽媽你無對我講
TTITLE1=秘密情人
TTITLE2=愛情的酒攏袂退
TTITLE3=野草亦是花
TTITLE4=癡情乎人心疼
TTITLE5=愛妳這呢深
TTITLE6=風飛沙
TTITLE7=往事就是我的安慰
TTITLE8=多情多怨嘆
TTITLE9=舊情也綿綿
TTITLE10=今生愛過的人
TTITLE11=風真透
TTITLE12=夢渡人生
TTITLE13=回鄉的我
EXTD=
EXTT0=
EXTT1=
EXTT2=
EXTT3=
EXTT4=
EXTT5=
EXTT6=
EXTT7=
EXTT8=
EXTT9=
EXTT10=
EXTT11=
EXTT12=
EXTT13=
PLAYORDER=
